<svg width="24" height="24" viewBox="0 0 24 24" fill="none" xmlns="http://www.w3.org/2000/svg">
<g clip-path="url(#clip0_188_813)">
<path d="M11.9999 8.00119C9.79788 8.00119 8.00088 9.79819 8.00088 12.0002C8.00088 14.2022 9.79788 15.9992 11.9999 15.9992C14.2019 15.9992 15.9989 14.2022 15.9989 12.0002C15.9989 9.79819 14.2019 8.00119 11.9999 8.00119ZM23.9939 12.0002C23.9939 10.3442 24.0089 8.70319 23.9159 7.05019C23.8229 5.13019 23.3849 3.42619 21.9809 2.02219C20.5739 0.615193 18.8729 0.180193 16.9529 0.0871931C15.2969 -0.00580693 13.6559 0.00919311 12.0029 0.00919311C10.3469 0.00919311 8.70588 -0.00580693 7.05288 0.0871931C5.13288 0.180193 3.42888 0.618193 2.02488 2.02219C0.617879 3.42919 0.182879 5.13019 0.0898786 7.05019C-0.00312138 8.70619 0.0118787 10.3472 0.0118787 12.0002C0.0118787 13.6532 -0.00312138 15.2972 0.0898786 16.9502C0.182879 18.8702 0.620879 20.5742 2.02488 21.9782C3.43188 23.3852 5.13288 23.8202 7.05288 23.9132C8.70888 24.0062 10.3499 23.9912 12.0029 23.9912C13.6589 23.9912 15.2999 24.0062 16.9529 23.9132C18.8729 23.8202 20.5769 23.3822 21.9809 21.9782C23.3879 20.5712 23.8229 18.8702 23.9159 16.9502C24.0119 15.2972 23.9939 13.6562 23.9939 12.0002ZM11.9999 18.1532C8.59488 18.1532 5.84688 15.4052 5.84688 12.0002C5.84688 8.59519 8.59488 5.84719 11.9999 5.84719C15.4049 5.84719 18.1529 8.59519 18.1529 12.0002C18.1529 15.4052 15.4049 18.1532 11.9999 18.1532ZM18.4049 7.03219C17.6099 7.03219 16.9679 6.39019 16.9679 5.59519C16.9679 4.80019 17.6099 4.15819 18.4049 4.15819C19.1999 4.15819 19.8419 4.80019 19.8419 5.59519C19.8421 5.78397 19.8051 5.97094 19.733 6.14539C19.6608 6.31984 19.555 6.47835 19.4215 6.61183C19.288 6.74532 19.1295 6.85116 18.9551 6.92329C18.7806 6.99542 18.5937 7.03243 18.4049 7.03219Z" fill="#BFBEBE"/>
</g>
<defs>
<clipPath id="clip0_188_813">
<rect width="24" height="24" fill="white"/>
</clipPath>
</defs>
</svg>
