<?xml version="1.0" standalone="no"?>
<!DOCTYPE svg PUBLIC "-//W3C//DTD SVG 20010904//EN"
 "http://www.w3.org/TR/2001/REC-SVG-20010904/DTD/svg10.dtd">
<svg version="1.0" xmlns="http://www.w3.org/2000/svg"
 width="558.000000pt" height="447.000000pt" viewBox="0 0 558.000000 447.000000"
 preserveAspectRatio="xMidYMid meet">

<g transform="translate(0.000000,447.000000) scale(0.100000,-0.100000)"
fill="#ffffff" stroke="none">
<path d="M4885 4080 c-3 -5 4 -51 16 -101 12 -52 19 -106 16 -125 -7 -42 4
-43 36 -4 31 37 42 95 27 150 -17 63 -75 112 -95 80z"/>
<path d="M4830 4038 c-31 -69 -24 -150 16 -193 13 -14 28 -25 34 -25 13 0 13
71 -1 106 -5 16 -11 56 -12 91 -1 35 -6 63 -10 63 -4 0 -17 -19 -27 -42z"/>
<path d="M5345 3970 c-4 -6 -5 -13 -4 -14 9 -9 99 -23 99 -16 0 25 -82 51 -95
30z"/>
<path d="M5123 3950 c-13 -5 -23 -14 -23 -21 0 -6 7 -8 16 -5 9 3 27 9 41 12
18 5 21 9 11 15 -16 10 -17 10 -45 -1z"/>
<path d="M4451 3941 c-20 -13 -4 -31 66 -78 29 -19 63 -47 74 -62 l22 -26 -6
40 c-8 50 -33 84 -83 112 -43 25 -52 27 -73 14z"/>
<path d="M5330 3931 c0 -18 48 -43 76 -39 43 5 41 26 -3 33 -21 4 -46 9 -55
12 -10 2 -18 0 -18 -6z"/>
<path d="M5135 3915 l-30 -14 39 2 c22 1 41 8 44 15 5 16 -15 15 -53 -3z"/>
<path d="M4415 3911 c-15 -25 6 -82 45 -121 42 -42 88 -57 120 -40 28 15 17
28 -69 86 -36 24 -70 53 -77 65 -8 15 -13 18 -19 10z"/>
<path d="M4674 3844 c-22 -33 -21 -109 1 -134 26 -28 37 -14 29 34 -4 22 -7
60 -6 84 0 23 -2 42 -4 42 -2 0 -11 -12 -20 -26z"/>
<path d="M4717 3863 c-3 -5 -1 -35 5 -68 5 -33 7 -70 5 -83 -6 -33 15 -22 36
19 11 22 16 46 13 68 -7 46 -45 87 -59 64z"/>
<path d="M4250 3849 c-55 -22 -110 -94 -110 -144 0 -49 41 -23 89 57 12 20 35
48 52 62 16 14 29 27 29 30 0 9 -32 6 -60 -5z"/>
<path d="M4283 3788 c-21 -29 -47 -66 -57 -82 -10 -15 -27 -31 -37 -33 -24 -7
-25 -23 -1 -24 86 -6 167 68 160 147 -2 21 -8 39 -15 41 -6 2 -29 -20 -50 -49z"/>
<path d="M5220 3624 c-8 -20 -8 -35 -1 -51 19 -41 33 -27 25 25 -8 59 -11 62
-24 26z"/>
<path d="M5253 3629 c4 -13 7 -37 8 -54 l1 -30 13 30 c14 31 7 66 -15 73 -9 3
-11 -2 -7 -19z"/>
<path d="M4583 3633 c-23 -9 -14 -36 38 -106 28 -39 57 -87 64 -106 l12 -36
13 24 c20 39 8 123 -24 165 -22 29 -75 69 -88 65 -2 0 -9 -3 -15 -6z"/>
<path d="M4285 3615 c-31 -16 -65 -51 -65 -66 0 -15 62 -9 120 11 30 11 74 19
98 20 51 0 54 12 8 34 -43 20 -122 21 -161 1z"/>
<path d="M4537 3596 c-31 -79 32 -206 108 -218 32 -5 21 38 -25 97 -21 27 -47
70 -58 95 -14 34 -20 40 -25 26z"/>
<path d="M4360 3535 c-51 -17 -86 -23 -109 -19 -31 6 -32 5 -22 -13 13 -25 79
-53 124 -53 64 0 161 70 141 102 -9 14 -57 8 -134 -17z"/>
<path d="M3853 3474 c-21 -9 12 -60 61 -93 50 -35 116 -108 116 -128 0 -8 5
-11 10 -8 16 10 11 73 -9 114 -21 40 -93 111 -114 111 -6 0 -21 2 -32 5 -11 2
-26 2 -32 -1z"/>
<path d="M4106 3471 c-3 -5 12 -31 35 -57 22 -27 45 -60 51 -74 l10 -25 10 25
c18 49 -37 140 -86 140 -8 0 -17 -4 -20 -9z"/>
<path d="M3811 3441 c-30 -54 7 -156 75 -207 39 -30 107 -43 129 -24 20 16 10
29 -92 119 -57 50 -85 83 -91 104 l-8 32 -13 -24z"/>
<path d="M4080 3426 c0 -31 14 -61 43 -93 20 -22 57 -32 57 -15 0 7 -77 112
-96 131 -2 2 -4 -8 -4 -23z"/>
<path d="M4380 3362 c-69 -34 -108 -149 -74 -219 21 -42 49 -54 58 -26 3 10
12 62 20 117 9 56 21 105 30 115 31 35 18 40 -34 13z"/>
<path d="M4436 3338 c-9 -21 -16 -57 -16 -80 -1 -24 -9 -68 -20 -98 -10 -30
-17 -57 -14 -59 9 -9 60 37 81 75 30 52 32 141 4 175 l-20 24 -15 -37z"/>
<path d="M4151 3184 c-14 -17 -21 -41 -21 -68 0 -47 14 -76 28 -61 9 9 24 155
16 155 -1 0 -12 -12 -23 -26z"/>
<path d="M4197 3203 c-4 -3 -7 -36 -7 -73 0 -38 -5 -71 -12 -78 -9 -9 -9 -12
0 -12 7 0 24 12 37 26 19 21 25 38 25 73 0 54 -22 86 -43 64z"/>
<path d="M3980 3119 c0 -6 18 -31 40 -56 38 -44 49 -64 33 -62 -5 0 -28 24
-53 54 -47 55 -64 56 -49 1 8 -30 60 -86 78 -86 34 0 52 61 30 103 -21 41 -79
75 -79 46z"/>
<path d="M4320 3036 c0 -7 7 -32 15 -55 8 -23 12 -49 9 -59 -5 -14 -3 -14 10
2 18 22 21 68 6 95 -12 24 -40 35 -40 17z"/>
<path d="M4297 3027 c-13 -34 -7 -74 14 -98 l20 -24 -5 30 c-15 90 -22 110
-29 92z"/>
<path d="M4184 2838 c4 -40 11 -91 16 -114 6 -25 6 -54 0 -74 -12 -40 -8 -45
20 -30 48 26 76 148 49 217 -14 38 -48 73 -72 73 -18 0 -19 -5 -13 -72z"/>
<path d="M4133 2878 c-30 -32 -43 -71 -43 -130 0 -56 23 -114 51 -129 28 -15
30 -1 22 149 l-8 134 -22 -24z"/>
<path d="M4388 2767 c-2 -13 -2 -63 1 -112 4 -59 2 -100 -6 -124 -16 -44 -16
-41 0 -41 7 0 27 15 44 33 52 55 67 134 38 204 -25 59 -69 82 -77 40z"/>
<path d="M4326 2750 c-49 -59 -57 -156 -18 -222 19 -32 38 -36 46 -10 3 9 5
62 4 117 -1 55 2 110 6 123 10 31 -7 28 -38 -8z"/>
<path d="M3860 2743 c0 -16 10 -48 21 -73 11 -25 23 -69 26 -98 5 -48 7 -52
21 -38 21 21 28 127 12 166 -12 30 -54 70 -71 70 -5 0 -9 -12 -9 -27z"/>
<path d="M3806 2738 c-49 -79 -3 -228 71 -228 27 0 26 13 -13 119 -13 35 -24
79 -24 97 0 39 -13 44 -34 12z"/>
<path d="M4000 2532 c-64 -32 -98 -131 -69 -196 13 -29 39 -42 49 -26 4 7 13
51 19 98 7 48 19 98 27 110 21 32 15 35 -26 14z"/>
<path d="M4051 2518 c-7 -12 -17 -53 -22 -91 -5 -38 -15 -82 -23 -98 -19 -38
1 -39 37 -1 31 32 57 91 57 127 0 21 -25 85 -33 85 -1 0 -8 -10 -16 -22z"/>
<path d="M3682 2477 c-15 -37 -15 -49 2 -73 22 -29 29 -11 18 48 -9 52 -9 53
-20 25z"/>
<path d="M3714 2478 c3 -13 6 -39 7 -58 l0 -35 16 32 c13 26 14 38 5 58 -15
31 -37 34 -28 3z"/>
<path d="M4208 2444 c-24 -13 -48 -42 -48 -58 0 -14 34 -4 83 24 30 17 61 30
71 30 9 0 14 5 11 10 -9 15 -86 11 -117 -6z"/>
<path d="M4270 2399 c-30 -17 -66 -35 -80 -39 l-25 -7 30 -12 c39 -16 87 -6
125 25 30 26 41 64 18 64 -7 0 -38 -14 -68 -31z"/>
<path d="M3565 2369 c-4 -6 -5 -12 -2 -15 6 -7 111 -33 115 -29 9 8 -13 28
-44 41 -40 17 -61 18 -69 3z"/>
<path d="M3296 2349 c-24 -19 -36 -50 -18 -49 4 1 25 16 46 35 33 29 36 35 19
35 -11 0 -32 -9 -47 -21z"/>
<path d="M3321 2315 c-40 -32 -42 -35 -19 -35 29 0 78 35 78 56 0 21 -11 17
-59 -21z"/>
<path d="M3801 2341 c-25 -16 7 -81 40 -81 25 0 34 36 15 65 -17 26 -32 30
-55 16z m55 -59 c-7 -6 -45 39 -45 53 0 6 11 -3 25 -19 14 -15 23 -31 20 -34z"/>
<path d="M3549 2322 c23 -42 73 -62 115 -46 31 12 15 30 -36 40 -29 6 -61 14
-72 19 -16 7 -17 6 -7 -13z"/>
<path d="M4133 2289 c-13 -4 -23 -14 -23 -21 0 -6 40 -50 89 -97 49 -47 96
-102 103 -121 l15 -35 12 24 c54 99 -96 290 -196 250z"/>
<path d="M3160 2231 c0 -10 17 -43 37 -72 20 -30 45 -74 54 -99 l17 -45 12 30
c22 56 -15 156 -68 188 -39 22 -52 22 -52 -2z"/>
<path d="M4088 2228 c-6 -90 39 -175 114 -214 26 -14 88 -20 88 -9 0 20 -36
69 -74 100 -24 20 -61 60 -82 90 -20 30 -39 55 -41 55 -1 0 -4 -10 -5 -22z"/>
<path d="M3117 2220 c-44 -63 12 -204 89 -222 56 -14 51 17 -24 129 -19 29
-37 67 -41 85 l-7 32 -17 -24z"/>
<path d="M3553 2224 c-35 -18 -40 -28 -21 -40 18 -11 219 -11 215 0 -15 46
-136 70 -194 40z"/>
<path d="M4409 2229 c-11 -6 -3 -18 35 -51 27 -24 74 -67 103 -95 49 -49 53
-51 53 -27 0 33 -26 93 -53 122 -40 43 -110 69 -138 51z"/>
<path d="M3861 2194 c-33 -24 -14 -36 66 -39 37 -2 82 -6 98 -11 l30 -7 -20
23 c-42 47 -130 65 -174 34z"/>
<path d="M4375 2197 c-22 -53 23 -148 89 -188 34 -21 101 -26 112 -8 8 14 -35
59 -108 112 -31 23 -63 55 -71 72 -13 26 -16 28 -22 12z"/>
<path d="M3517 2151 c16 -61 160 -95 216 -51 50 40 37 48 -80 52 -60 2 -116 7
-125 12 -13 6 -15 4 -11 -13z"/>
<path d="M3391 2134 c-38 -32 -55 -87 -38 -123 7 -14 17 -26 22 -26 6 0 18 31
27 69 10 38 22 74 28 80 5 5 10 14 10 18 0 15 -18 8 -49 -18z"/>
<path d="M3841 2130 c37 -57 112 -84 168 -60 28 11 47 37 37 48 -3 2 -45 8
-93 12 -48 4 -97 11 -108 15 -19 9 -19 8 -4 -15z"/>
<path d="M3440 2121 c-5 -11 -10 -29 -10 -41 0 -11 -7 -37 -15 -57 -8 -20 -13
-38 -10 -41 10 -10 54 41 66 75 19 58 -6 110 -31 64z"/>
<path d="M1519 1997 c-83 -56 -126 -181 -81 -237 28 -35 43 -18 88 98 21 54
51 111 68 130 l30 32 -36 0 c-20 0 -49 -10 -69 -23z"/>
<path d="M3840 2016 c0 -8 91 -78 96 -73 9 8 -24 64 -41 71 -18 7 -55 8 -55 2z"/>
<path d="M1624 1982 c-11 -12 -33 -54 -48 -94 -16 -40 -41 -92 -57 -115 -33
-50 -20 -57 40 -22 84 49 138 178 98 233 -13 18 -14 18 -33 -2z"/>
<path d="M3654 1985 c-59 -25 -112 -124 -99 -186 11 -48 37 -33 62 36 13 33
34 82 49 109 14 26 24 50 22 51 -2 2 -17 -3 -34 -10z"/>
<path d="M3830 1985 c0 -23 45 -65 70 -65 11 0 20 1 20 3 0 1 -20 20 -45 40
-32 27 -45 33 -45 22z"/>
<path d="M3692 1943 c-11 -27 -26 -68 -33 -92 -7 -24 -26 -56 -42 -72 l-29
-29 33 0 c88 0 172 148 123 218 -22 31 -29 28 -52 -25z"/>
<path d="M3401 1944 c-22 -16 -36 -71 -27 -107 3 -15 14 -23 30 -25 34 -2 66
40 66 89 0 51 -30 70 -69 43z m24 -70 c-3 -24 -11 -47 -17 -50 -11 -7 -4 79
10 114 6 16 7 16 10 -2 2 -10 1 -38 -3 -62z"/>
<path d="M3170 1931 c-12 -8 -12 -13 4 -30 11 -12 38 -32 61 -46 24 -13 55
-39 69 -56 l26 -31 0 30 c0 72 -111 164 -160 133z"/>
<path d="M4001 1908 c6 -13 45 -54 85 -91 40 -37 76 -77 79 -87 4 -11 11 -18
16 -15 16 10 10 58 -15 112 -30 63 -84 103 -139 103 -36 0 -37 -1 -26 -22z"/>
<path d="M3134 1897 c-11 -30 14 -93 51 -126 40 -35 98 -50 120 -31 20 17 8
31 -74 86 -36 24 -71 54 -77 66 -12 21 -13 22 -20 5z"/>
<path d="M3954 1875 c-17 -91 74 -205 162 -205 23 0 46 5 50 11 4 6 -35 50
-90 103 -53 51 -96 100 -96 109 0 31 -19 17 -26 -18z"/>
<path d="M3790 1841 c-19 -37 -11 -72 24 -107 32 -32 66 -45 66 -25 0 5 -20
30 -45 55 -25 26 -45 52 -45 58 0 13 81 -58 96 -84 11 -20 24 -14 24 10 0 29
-34 83 -61 97 -37 20 -46 19 -59 -4z"/>
<path d="M4266 1817 c-28 -20 -1 -26 59 -12 36 8 45 13 32 18 -29 11 -72 8
-91 -6z"/>
<path d="M4325 1789 c-22 -6 -48 -8 -57 -5 -10 2 -18 2 -18 -1 0 -3 8 -12 18
-19 34 -26 112 -11 112 21 0 17 1 17 -55 4z"/>
<path d="M4428 1763 c-39 -42 -50 -70 -50 -130 -1 -61 25 -108 58 -108 17 0
19 11 24 116 3 77 10 122 19 133 25 29 -22 19 -51 -11z"/>
<path d="M4496 1758 c-3 -13 -7 -63 -9 -113 -2 -49 -7 -99 -12 -110 -9 -19 -8
-19 15 -4 35 22 70 95 70 147 0 75 -52 139 -64 80z"/>
<path d="M3449 1690 c-72 -38 -127 -129 -113 -187 6 -22 7 -22 34 -7 15 9 42
41 60 70 17 29 54 73 80 98 l49 46 -37 0 c-20 -1 -53 -9 -73 -20z"/>
<path d="M1846 1683 c-12 -13 -5 -47 24 -112 16 -37 32 -87 36 -110 6 -39 8
-41 23 -26 12 11 16 35 16 89 0 61 -4 78 -25 109 -24 36 -62 61 -74 50z"/>
<path d="M3524 1638 c-22 -29 -52 -72 -67 -96 -15 -23 -43 -50 -62 -59 -44
-21 -36 -33 21 -33 57 0 89 17 141 73 46 50 63 103 44 143 -16 36 -35 29 -77
-28z"/>
<path d="M1780 1648 c-52 -85 6 -248 88 -248 22 0 24 3 18 31 -3 17 -18 58
-32 92 -15 34 -29 83 -31 110 -3 26 -9 47 -14 47 -5 0 -18 -15 -29 -32z"/>
<path d="M760 1653 c0 -4 23 -31 52 -60 69 -69 57 -77 -15 -10 -60 56 -78 54
-53 -7 15 -37 60 -76 87 -76 22 0 39 29 39 65 0 33 -58 95 -89 95 -12 0 -21
-3 -21 -7z"/>
<path d="M993 1603 c3 -21 14 -69 25 -108 17 -64 20 -68 30 -48 29 53 6 159
-39 184 -20 10 -21 9 -16 -28z"/>
<path d="M3768 1623 c-24 -28 -29 -57 -14 -78 12 -16 18 -17 39 -8 34 16 47
71 21 90 -23 17 -28 16 -46 -4z m28 -49 c-4 -18 -11 -34 -17 -34 -9 0 -6 23 8
75 9 32 16 -1 9 -41z"/>
<path d="M265 1625 c-5 -2 -22 -6 -37 -9 -32 -7 -88 -53 -88 -72 0 -19 62 -18
137 1 31 8 82 15 111 15 48 0 53 2 41 16 -7 8 -24 21 -38 29 -27 14 -108 27
-126 20z"/>
<path d="M936 1608 c-38 -54 -3 -178 52 -186 28 -4 28 7 -3 98 -14 41 -23 82
-19 92 8 25 -12 23 -30 -4z"/>
<path d="M4196 1555 c-3 -13 -6 -54 -5 -90 1 -39 -3 -71 -11 -80 -10 -12 -10
-15 3 -15 23 0 65 56 73 94 7 39 -1 73 -24 99 -21 23 -29 22 -36 -8z"/>
<path d="M4148 1553 c-39 -45 -46 -136 -12 -164 23 -19 33 5 33 78 -1 34 2 71
6 82 8 26 -6 27 -27 4z"/>
<path d="M1209 1531 c-31 -25 -17 -39 16 -17 15 10 33 16 42 14 9 -2 -1 -11
-26 -24 -31 -16 -38 -23 -26 -27 19 -8 57 6 74 27 11 13 11 19 1 31 -17 21
-53 19 -81 -4z"/>
<path d="M295 1515 c-69 -19 -98 -22 -124 -15 -19 5 -37 7 -39 5 -3 -2 11 -20
30 -39 39 -39 97 -53 175 -41 53 8 113 58 113 94 0 28 -37 27 -155 -4z"/>
<path d="M1373 1485 c-27 -11 -53 -41 -53 -59 0 -12 48 -6 86 10 22 9 62 20
89 23 l50 7 -32 17 c-38 20 -96 21 -140 2z"/>
<path d="M3900 1466 c0 -8 29 -46 65 -85 36 -39 65 -80 65 -90 0 -11 4 -22 9
-25 24 -15 29 90 6 133 -23 45 -72 81 -111 81 -23 0 -34 -5 -34 -14z"/>
<path d="M564 1450 c-26 -10 -54 -48 -54 -72 0 -25 17 -22 31 5 6 12 21 32 32
44 24 27 21 34 -9 23z"/>
<path d="M577 1405 c-16 -25 -36 -49 -45 -55 -15 -8 -14 -9 5 -10 34 0 83 47
83 81 0 40 -10 36 -43 -16z"/>
<path d="M1451 1425 c-35 -14 -80 -25 -99 -25 l-36 0 21 -21 c26 -27 101 -36
143 -19 33 14 70 54 70 76 0 20 -26 17 -99 -11z"/>
<path d="M3874 1426 c-9 -36 20 -107 57 -144 31 -30 75 -46 85 -31 7 12 -20
61 -51 89 -16 14 -40 45 -56 69 l-28 43 -7 -26z"/>
<path d="M4341 1422 c-19 -9 -41 -28 -50 -41 -15 -24 -15 -24 14 -18 17 3 61
17 98 30 l68 25 -32 11 c-43 15 -58 14 -98 -7z"/>
<path d="M4391 1365 c-35 -14 -73 -25 -84 -25 -20 0 -20 -1 -4 -17 42 -42 167
-10 175 46 4 27 -7 26 -87 -4z"/>
<path d="M1580 1351 c5 -11 25 -29 44 -40 19 -12 48 -38 65 -57 l31 -35 0 27
c0 59 -65 124 -125 124 -22 0 -24 -3 -15 -19z"/>
<path d="M1550 1310 c0 -32 7 -47 38 -80 31 -32 46 -40 75 -40 20 0 38 4 42 9
3 6 -26 35 -65 66 -38 31 -70 62 -70 70 0 8 -4 15 -10 15 -5 0 -10 -18 -10
-40z"/>
<path d="M4449 1307 c-60 -40 -97 -134 -70 -176 15 -24 37 2 66 79 15 38 35
81 46 95 26 33 5 34 -42 2z"/>
<path d="M4485 1233 c-20 -48 -46 -98 -58 -110 l-20 -23 24 0 c54 0 119 66
133 135 6 31 -10 76 -30 82 -6 2 -28 -36 -49 -84z"/>
<path d="M3640 1225 c0 -20 10 -75 22 -122 17 -70 19 -92 10 -116 -15 -40 -11
-42 23 -15 72 56 74 203 4 262 -43 36 -59 34 -59 -9z"/>
<path d="M2150 1218 c0 -18 10 -49 22 -68 12 -19 31 -64 44 -99 20 -56 23 -61
33 -43 6 11 11 45 11 74 0 64 -31 123 -78 151 l-32 19 0 -34z"/>
<path d="M3591 1224 c-49 -62 -49 -167 0 -235 45 -64 72 -15 44 83 -9 34 -17
88 -17 120 0 32 -1 58 -3 58 -2 0 -13 -12 -24 -26z"/>
<path d="M2095 1216 c-39 -59 -25 -158 30 -213 36 -36 85 -46 85 -17 0 9 -21
57 -46 107 -32 63 -45 99 -42 119 5 34 -6 36 -27 4z"/>
<path d="M4161 1203 c-22 -27 -27 -58 -11 -68 5 -3 14 12 20 34 6 22 15 43 20
46 13 8 12 -12 -4 -57 -13 -35 -12 -37 5 -27 10 5 23 19 29 30 30 55 -21 91
-59 42z"/>
<path d="M2375 1197 c-28 -21 -14 -30 58 -38 34 -4 70 -10 81 -14 27 -11 17
14 -15 38 -35 25 -99 33 -124 14z"/>
<path d="M3376 1149 c-60 -47 -85 -153 -48 -199 10 -13 24 -20 30 -17 6 4 20
48 32 98 12 50 28 102 37 115 14 22 14 24 -5 24 -10 0 -31 -9 -46 -21z"/>
<path d="M3881 1160 c-11 -6 -6 -19 27 -58 23 -27 46 -60 51 -73 l9 -24 7 28
c16 59 -54 153 -94 127z"/>
<path d="M2350 1147 c0 -21 44 -57 82 -68 39 -10 75 -1 96 24 16 19 5 23 -83
33 -33 3 -68 11 -77 16 -13 6 -18 5 -18 -5z"/>
<path d="M3447 1134 c-8 -16 -17 -49 -21 -74 -4 -24 -16 -64 -27 -89 -10 -24
-18 -45 -16 -47 2 -2 17 5 35 16 62 38 100 166 60 206 -15 15 -17 15 -31 -12z"/>
<path d="M3851 1115 c-1 -54 65 -133 91 -107 5 5 -3 24 -24 48 -18 22 -41 51
-50 65 l-17 24 0 -30z"/>
<path d="M1744 1119 c-11 -18 8 -28 71 -40 33 -6 68 -15 78 -21 10 -5 21 -7
24 -4 9 8 -27 46 -59 62 -32 17 -104 19 -114 3z"/>
<path d="M1730 1077 c0 -29 12 -47 46 -67 41 -26 109 -29 132 -6 23 22 8 31
-77 46 -36 7 -74 19 -83 28 -16 14 -18 14 -18 -1z"/>
<path d="M2979 1011 c-32 -32 -39 -45 -39 -79 0 -92 30 -97 54 -9 15 53 27 84
44 120 11 21 -25 2 -59 -32z"/>
<path d="M3052 1018 c-5 -7 -13 -29 -17 -48 -4 -19 -16 -52 -26 -72 -24 -47
-6 -52 35 -10 34 36 51 94 36 122 -13 23 -14 24 -28 8z"/>
<path d="M2755 915 c-14 -13 -25 -36 -25 -50 0 -30 16 -25 31 8 5 12 16 32 25
45 23 30 0 29 -31 -3z"/>
<path d="M2514 918 c-41 -9 -94 -47 -94 -68 0 -16 50 -12 108 10 29 11 69 20
89 20 34 0 36 1 22 16 -23 22 -77 32 -125 22z"/>
<path d="M2782 880 c-28 -45 -29 -50 -12 -50 24 0 60 46 60 76 0 37 -14 29
-48 -26z"/>
<path d="M2551 839 c-54 -18 -93 -26 -110 -22 -26 6 -26 6 -7 -16 43 -48 138
-49 200 0 27 21 37 70 14 68 -7 0 -51 -14 -97 -30z"/>
<path d="M2160 838 c-39 -43 -50 -124 -25 -185 21 -50 43 -73 72 -73 29 0 29
15 2 132 -12 50 -19 103 -15 119 7 35 -6 37 -34 7z"/>
<path d="M2220 828 c0 -18 7 -55 15 -82 8 -27 15 -73 15 -103 0 -64 14 -68 40
-10 33 71 22 164 -24 210 -28 27 -46 21 -46 -15z"/>
<path d="M3204 831 c-47 -21 -94 -77 -94 -110 0 -19 4 -21 23 -15 12 3 41 24
64 45 22 20 60 47 84 59 32 17 39 24 28 31 -22 14 -60 10 -105 -10z"/>
<path d="M3280 778 c-89 -72 -113 -88 -139 -88 -24 0 -24 -1 -9 -17 21 -21 94
-21 136 1 43 22 82 73 82 106 0 16 -4 31 -9 34 -5 4 -33 -13 -61 -36z"/>
<path d="M2720 560 c5 -10 35 -35 65 -56 30 -20 64 -47 75 -61 l20 -26 0 29
c0 64 -72 134 -138 134 -29 0 -32 -2 -22 -20z"/>
<path d="M2685 538 c-14 -57 71 -158 134 -158 14 0 32 4 40 9 20 13 5 29 -75
81 -35 23 -64 45 -64 49 0 4 -6 16 -14 27 -14 18 -15 18 -21 -8z"/>
</g>
</svg>
